<?xml version="1.0" encoding="UTF-8" standalone="no"?>
<!-- Created with Inkscape (http://www.inkscape.org/) -->

<svg
   version="1.1"
   id="svg768"
   width="4350.9829"
   height="804.07501"
   viewBox="0 0 4350.9829 804.07501"
   sodipodi:docname="logo.svg"
   inkscape:version="1.3.2 (091e20ef0f, 2023-11-25, custom)"
   xmlns:inkscape="http://www.inkscape.org/namespaces/inkscape"
   xmlns:sodipodi="http://sodipodi.sourceforge.net/DTD/sodipodi-0.dtd"
   xmlns="http://www.w3.org/2000/svg"
   xmlns:svg="http://www.w3.org/2000/svg">
  <defs
     id="defs772">
    <clipPath
       clipPathUnits="userSpaceOnUse"
       id="clipPath786">
      <path
         d="M 0,1224.555 H 4096 V 0 H 0 Z"
         id="path784" />
    </clipPath>
  </defs>
  <sodipodi:namedview
     id="namedview770"
     pagecolor="#ffffff"
     bordercolor="#000000"
     borderopacity="0.25"
     inkscape:showpageshadow="2"
     inkscape:pageopacity="0.0"
     inkscape:pagecheckerboard="true"
     inkscape:deskcolor="#d1d1d1"
     showgrid="false"
     inkscape:zoom="0.26715087"
     inkscape:cx="2489.2301"
     inkscape:cy="780.45787"
     inkscape:window-width="1920"
     inkscape:window-height="1012"
     inkscape:window-x="1920"
     inkscape:window-y="32"
     inkscape:window-maximized="1"
     inkscape:current-layer="g776">
    <inkscape:page
       x="0"
       y="0"
       id="page774"
       width="4350.9829"
       height="804.07501"
       margin="0"
       bleed="0" />
  </sodipodi:namedview>
  <g
     id="g776"
     inkscape:groupmode="layer"
     inkscape:label="Page 1"
     transform="matrix(1.3333333,0,0,-1.3333333,-31.122973,1596.2271)">
    <g
       id="g780"
       transform="translate(-396.45272,279.87167)"
       style="fill:#073615;fill-opacity:1">
      <g
         id="g782"
         clip-path="url(#clipPath786)"
         style="fill:#073615;fill-opacity:1">
        <g
           id="g788"
           transform="translate(895.1314,365.4083)"
           style="fill:#073615;fill-opacity:1">
          <path
             d="m 0,0 c -92.986,-49.561 -230.493,-54.053 -331.938,2.639 -20.07,11.215 -17.292,40.82 4.676,47.603 12.925,3.991 27.215,8.479 43.988,12.924 17.96,3.043 43.753,11.37 83.062,22.913 28.642,160.395 -51.556,229.135 -120.296,243.456 31.506,-17.185 77.333,-45.827 91.654,-117.432 -180.444,-14.32 -194.765,83.062 -226.271,171.852 123.16,25.777 214.814,2.864 269.234,-88.79 14.32,211.95 157.53,229.135 277.826,234.863 -20.05,-94.518 -14.321,-246.32 -206.222,-269.233 2.864,65.876 31.506,126.024 103.111,180.443 C -154.385,401.14 -165.842,197.783 -140.065,86.079 -116.747,72.99 -98.385,70.55 -68.46,63.166 -45.334,56.997 -23.364,50.6 -4.695,45.175 16.417,39.04 19.401,10.341 0,0"
             style="fill:#073615;fill-opacity:1;fill-rule:evenodd;stroke:none"
             id="path790" />
        </g>
        <g
           id="g792"
           transform="translate(1253.9807,699.2617)"
           style="fill:#073615;fill-opacity:1">
          <path
             d="m 0,0 v -81.2 h 99.167 v -33.29 H 0 V -220.35 H -41.392 V 33.29 H 116.781 V 0 Z"
             style="fill:#073615;fill-opacity:1;fill-rule:nonzero;stroke:none"
             id="path794" />
        </g>
        <path
           d="m 1490.184,478.911 h -41.392 v 253.641 h 41.392 z"
           style="fill:#073615;fill-opacity:1;fill-rule:nonzero;stroke:none"
           id="path796" />
        <g
           id="g798"
           transform="translate(1797.3716,732.5521)"
           style="fill:#073615;fill-opacity:1">
          <path
             d="m 0,0 v -253.641 h -20.961 c -3.17,0 -5.873,0.556 -8.102,1.674 -2.232,1.115 -4.346,2.963 -6.341,5.548 L -174.73,-67.461 c 0.351,-3.408 0.616,-6.782 0.792,-10.128 0.176,-3.347 0.264,-6.429 0.264,-9.248 v -166.804 h -36.284 V 0 h 21.488 c 1.762,0 3.259,-0.088 4.492,-0.264 1.233,-0.176 2.378,-0.501 3.435,-0.969 1.057,-0.47 2.053,-1.175 2.994,-2.113 0.939,-0.942 1.938,-2.114 2.995,-3.523 l 139.502,-179.134 c -0.352,3.638 -0.617,7.222 -0.792,10.745 -0.176,3.522 -0.265,6.809 -0.265,9.864 V 0 Z"
             style="fill:#073615;fill-opacity:1;fill-rule:nonzero;stroke:none"
             id="path800" />
        </g>
        <g
           id="g802"
           transform="translate(2102.4458,603.7942)"
           style="fill:#073615;fill-opacity:1">
          <path
             d="m 0,0 v -100.399 c -25.25,-18.203 -54.605,-27.302 -88.07,-27.302 -20.55,0 -39.133,3.199 -55.75,9.6 -16.617,6.399 -30.796,15.324 -42.537,26.773 -11.743,11.449 -20.784,25.1 -27.125,40.953 -6.341,15.852 -9.512,33.289 -9.512,52.313 0,19.138 3.052,36.664 9.16,52.577 6.104,15.911 14.853,29.592 26.244,41.041 11.388,11.449 25.128,20.313 41.218,26.597 16.085,6.28 34.171,9.423 54.249,9.423 10.217,0 19.699,-0.792 28.449,-2.377 8.745,-1.585 16.879,-3.787 24.393,-6.606 7.514,-2.818 14.444,-6.225 20.787,-10.216 6.34,-3.993 12.153,-8.454 17.437,-13.386 L -12.86,80.144 c -1.88,-2.937 -4.287,-4.756 -7.221,-5.461 -2.936,-0.705 -6.106,0 -9.51,2.114 -3.409,1.995 -7.018,4.109 -10.835,6.341 -3.817,2.23 -8.189,4.315 -13.122,6.253 -4.931,1.937 -10.627,3.523 -17.084,4.756 -6.46,1.233 -14.091,1.849 -22.898,1.849 -13.387,0 -25.453,-2.202 -36.196,-6.605 -10.747,-4.404 -19.936,-10.686 -27.566,-18.847 -7.636,-8.163 -13.507,-18.054 -17.614,-29.679 -4.113,-11.626 -6.167,-24.602 -6.167,-38.927 0,-15.149 2.173,-28.683 6.517,-40.6 4.344,-11.92 10.508,-22.017 18.497,-30.296 7.984,-8.278 17.64,-14.593 28.973,-18.935 11.331,-4.345 23.983,-6.517 37.959,-6.517 10.451,0 19.754,1.114 27.917,3.347 8.16,2.229 16.175,5.342 24.045,9.335 v 50.375 h -35.404 c -2.703,0 -4.817,0.732 -6.343,2.202 -1.527,1.467 -2.288,3.374 -2.288,5.725 L -81.2,0 Z"
             style="fill:#073615;fill-opacity:1;fill-rule:nonzero;stroke:none"
             id="path804" />
        </g>
        <g
           id="g806"
           transform="translate(2261.8516,611.0161)"
           style="fill:#073615;fill-opacity:1">
          <path
             d="m 0,0 c 9.392,0 17.614,1.145 24.659,3.435 7.046,2.289 12.916,5.487 17.614,9.6 4.695,4.108 8.218,9.01 10.569,14.707 2.347,5.694 3.522,12.005 3.522,18.935 0,13.855 -4.58,24.423 -13.739,31.705 -9.159,7.28 -23.016,10.921 -41.568,10.921 H -32.411 V 0 Z M 119.423,-132.105 H 82.608 c -7.281,0 -12.565,2.819 -15.852,8.455 L 7.574,-38.222 c -1.998,2.934 -4.17,5.048 -6.517,6.341 -2.351,1.29 -5.873,1.938 -10.569,1.938 H -32.411 V -132.105 H -73.627 V 121.536 H 1.057 c 16.672,0 31.027,-1.703 43.065,-5.108 12.035,-3.407 21.93,-8.251 29.679,-14.531 7.751,-6.283 13.476,-13.827 17.174,-22.634 3.7,-8.807 5.549,-18.613 5.549,-29.415 0,-8.807 -1.321,-17.028 -3.964,-24.66 C 89.918,17.554 86.102,10.626 81.111,4.404 76.119,-1.821 69.985,-7.222 62.706,-11.801 c -7.283,-4.58 -15.562,-8.163 -24.836,-10.745 5.047,-3.054 9.392,-7.34 13.034,-12.857 z"
             style="fill:#073615;fill-opacity:1;fill-rule:nonzero;stroke:none"
             id="path808" />
        </g>
        <g
           id="g810"
           transform="translate(2607.262,512.2023)"
           style="fill:#073615;fill-opacity:1">
          <path
             d="M 0,0 -0.177,-33.291 H -158.35 V 220.35 H -0.177 v -33.291 h -116.78 v -76.444 h 93.353 V 78.381 h -93.353 V 0 Z"
             style="fill:#073615;fill-opacity:1;fill-rule:nonzero;stroke:none"
             id="path812" />
        </g>
        <g
           id="g814"
           transform="translate(2847.1638,512.2023)"
           style="fill:#073615;fill-opacity:1">
          <path
             d="M 0,0 -0.177,-33.291 H -158.35 V 220.35 H -0.177 v -33.291 h -116.78 v -76.444 h 93.353 V 78.381 h -93.353 V 0 Z"
             style="fill:#073615;fill-opacity:1;fill-rule:nonzero;stroke:none"
             id="path816" />
        </g>
        <g
           id="g818"
           transform="translate(3138.6743,732.5521)"
           style="fill:#073615;fill-opacity:1">
          <path
             d="m 0,0 v -253.641 h -20.961 c -3.17,0 -5.873,0.556 -8.102,1.674 -2.233,1.115 -4.346,2.963 -6.342,5.548 l -139.326,178.958 c 0.353,-3.408 0.617,-6.782 0.793,-10.128 0.177,-3.347 0.264,-6.429 0.264,-9.248 v -166.804 h -36.285 V 0 h 21.489 c 1.762,0 3.259,-0.088 4.492,-0.264 1.233,-0.176 2.378,-0.501 3.435,-0.969 1.057,-0.47 2.053,-1.175 2.994,-2.113 0.938,-0.942 1.938,-2.114 2.995,-3.523 l 139.503,-179.134 c -0.354,3.638 -0.617,7.222 -0.793,10.745 -0.177,3.522 -0.265,6.809 -0.265,9.864 V 0 Z"
             style="fill:#073615;fill-opacity:1;fill-rule:nonzero;stroke:none"
             id="path820" />
        </g>
        <g
           id="g822"
           transform="translate(3472.8074,574.0265)"
           style="fill:#073615;fill-opacity:1">
          <path
             d="m 0,0 -34.875,92.65 c -2.818,7.161 -5.698,16.262 -8.632,27.302 -1.293,-5.522 -2.701,-10.6 -4.226,-15.237 -1.527,-4.64 -2.937,-8.718 -4.227,-12.242 L -86.836,0 Z M 78.031,-95.115 H 46.15 c -3.642,0 -6.578,0.909 -8.807,2.73 -2.233,1.82 -3.937,4.079 -5.109,6.782 L 11.097,-29.591 H -98.109 l -21.137,-56.012 c -0.941,-2.351 -2.585,-4.522 -4.932,-6.517 -2.35,-1.998 -5.284,-2.995 -8.807,-2.995 h -31.881 l 100.575,253.641 h 41.745 z"
             style="fill:#073615;fill-opacity:1;fill-rule:nonzero;stroke:none"
             id="path824" />
        </g>
        <path
           d="m 3655.994,478.911 h -41.393 v 253.641 h 41.393 z"
           style="fill:#073615;fill-opacity:1;fill-rule:nonzero;stroke:none"
           id="path826" />
      </g>
    </g>
  </g>
</svg>
